<?xml version="1.0" standalone="no"?>
<!DOCTYPE svg PUBLIC "-//W3C//DTD SVG 20010904//EN"
 "http://www.w3.org/TR/2001/REC-SVG-20010904/DTD/svg10.dtd">
<svg version="1.0" xmlns="http://www.w3.org/2000/svg"
 width="968.000000pt" height="149.000000pt" viewBox="0 0 968.000000 149.000000"
 preserveAspectRatio="xMidYMid meet">

<g transform="translate(0.000000,149.000000) scale(0.100000,-0.100000)"
fill="WHITE" stroke="none">
<path d="M522 1320 c-294 -53 -521 -308 -522 -586 0 -76 31 -199 67 -267 15
-29 64 -89 108 -134 137 -139 298 -200 499 -191 241 12 450 143 545 341 83
173 82 336 0 506 -40 81 -147 194 -230 244 -129 76 -323 112 -467 87z m228
-44 c198 -36 349 -145 430 -310 48 -97 64 -176 56 -272 -16 -194 -128 -354
-311 -445 -368 -182 -811 22 -875 404 -48 282 168 567 472 622 95 17 137 17
228 1z"/>
<path d="M420 983 c-8 -3 -25 -15 -37 -26 -49 -44 -13 -127 55 -129 94 -3 123
112 37 147 -19 8 -36 15 -37 14 -2 0 -10 -3 -18 -6z m59 -62 c23 -42 -46 -71
-72 -29 -8 12 -7 21 2 32 18 22 58 20 70 -3z"/>
<path d="M804 976 c-64 -28 -60 -121 5 -144 100 -35 163 103 65 144 -39 16
-32 16 -70 0z m74 -68 c3 -22 -2 -29 -22 -34 -36 -9 -56 1 -56 29 0 32 9 39
45 35 24 -2 31 -8 33 -30z"/>
<path d="M305 482 c-7 -20 -2 -24 70 -60 169 -85 360 -85 533 0 64 32 80 48
67 67 -3 7 -32 -3 -73 -23 -87 -45 -172 -66 -262 -66 -91 0 -145 13 -247 60
-69 32 -83 36 -88 22z"/>
<path d="M4930 1150 c-30 -16 -99 -46 -152 -67 -91 -35 -98 -40 -98 -65 0 -24
-4 -28 -29 -28 -28 0 -61 -22 -61 -39 0 -17 38 -41 63 -41 l27 0 0 -202 c0
-218 7 -260 47 -308 98 -117 332 -88 403 50 25 49 25 76 0 90 -15 8 -23 6 -40
-12 -11 -12 -20 -27 -20 -33 0 -15 -46 -65 -60 -65 -7 0 -10 79 -10 240 l0
240 48 0 c51 0 72 12 72 42 0 26 -37 41 -81 34 l-39 -6 0 100 c0 55 -3 100 -7
100 -5 -1 -33 -14 -63 -30z"/>
<path d="M1870 1141 c-30 -10 -69 -25 -86 -34 -48 -25 -154 -145 -183 -206
-23 -50 -26 -68 -26 -166 0 -104 2 -114 33 -177 75 -153 216 -240 386 -240 65
1 99 9 186 46 10 4 36 -9 72 -37 77 -60 114 -75 135 -54 23 23 11 42 -54 84
-32 21 -62 41 -67 45 -6 4 9 27 33 53 131 143 146 353 37 518 -101 152 -298
222 -466 168z m275 -90 c193 -95 254 -341 128 -520 -58 -83 -66 -85 -114 -28
-52 61 -73 72 -93 51 -14 -13 -14 -19 -2 -42 8 -15 28 -40 45 -56 17 -17 31
-33 31 -37 0 -10 -57 -25 -127 -34 l-53 -7 0 357 0 358 61 -6 c39 -3 84 -16
124 -36z"/>
<path d="M6152 1138 c-8 -8 -12 -54 -12 -140 l0 -128 -170 0 -170 0 3 133 2
132 -187 3 -188 2 0 -400 0 -400 191 0 191 0 -4 228 -3 227 167 3 168 2 2
-232 3 -233 24 -3 c13 -2 28 1 33 6 7 7 11 150 12 398 1 309 -2 390 -12 401
-17 16 -34 17 -50 1z"/>
<path d="M7047 1134 c-4 -4 -7 -184 -7 -401 l0 -393 160 0 160 0 -2 398 -3
397 -151 3 c-82 1 -153 -1 -157 -4z"/>
<path d="M3617 990 c-118 -30 -210 -116 -247 -230 -50 -157 8 -290 175 -399
36 -24 49 -26 140 -26 91 0 105 3 158 29 109 56 179 134 157 176 -17 32 -42
23 -98 -36 -64 -68 -142 -107 -204 -102 l-43 3 -3 113 -3 112 187 0 187 0 -6
61 c-7 82 -55 178 -111 224 -84 68 -197 98 -289 75z m130 -74 c3 -3 7 -52 10
-109 l6 -104 -36 -6 c-74 -12 -77 -8 -77 113 0 77 4 110 13 114 13 6 76 0 84
-8z"/>
<path d="M4275 993 c-79 -17 -148 -63 -182 -120 -21 -36 -25 -53 -21 -96 5
-64 25 -94 158 -243 55 -62 100 -118 100 -125 0 -25 -109 -3 -169 35 -62 38
-91 35 -91 -9 0 -53 123 -105 250 -105 162 0 270 78 270 194 0 71 -32 129
-119 216 -89 89 -151 158 -151 170 0 28 119 11 168 -24 27 -19 40 -23 54 -15
30 16 23 56 -14 79 -57 35 -189 57 -253 43z"/>
<path d="M6557 990 c-118 -30 -210 -116 -247 -230 -50 -157 8 -290 175 -399
36 -24 49 -26 140 -26 91 0 105 3 158 29 109 56 179 134 157 176 -17 32 -42
23 -98 -36 -64 -68 -142 -107 -204 -102 l-43 3 -3 113 -3 112 187 0 187 0 -6
61 c-7 82 -55 178 -111 224 -84 68 -197 98 -289 75z m130 -74 c3 -3 7 -52 10
-109 l6 -104 -36 -6 c-74 -12 -77 -8 -77 113 0 77 4 110 13 114 13 6 76 0 84
-8z"/>
<path d="M7905 989 c-22 -5 -57 -23 -77 -40 l-38 -30 0 31 0 30 -160 0 -160 0
0 -335 0 -335 160 0 160 0 0 80 0 80 38 -23 c54 -34 98 -47 161 -47 101 1 182
57 230 160 21 46 26 69 25 140 0 101 -17 141 -92 218 -70 71 -148 94 -247 71z
m5 -289 c0 -166 -3 -210 -13 -210 -7 0 -34 13 -60 30 l-47 30 0 143 c0 136 1
145 23 165 22 21 75 52 90 52 4 0 7 -94 7 -210z"/>
<path d="M8557 990 c-118 -30 -210 -116 -247 -230 -50 -157 8 -290 175 -399
36 -24 49 -26 140 -26 91 0 105 3 158 29 109 56 179 134 157 176 -17 32 -42
23 -98 -36 -64 -68 -142 -107 -204 -102 l-43 3 -3 113 -3 112 187 0 187 0 -6
61 c-7 82 -55 178 -111 224 -84 68 -197 98 -289 75z m130 -74 c3 -3 7 -52 10
-109 l6 -104 -36 -6 c-74 -12 -77 -8 -77 113 0 77 4 110 13 114 13 6 76 0 84
-8z"/>
<path d="M9504 990 c-42 -9 -97 -44 -129 -81 l-25 -31 0 51 0 51 -160 0 -160
0 0 -320 0 -320 160 0 160 0 0 227 0 227 51 49 51 49 68 -6 c75 -8 100 5 100
48 0 41 -58 68 -116 56z"/>
<path d="M2492 723 c3 -289 5 -295 80 -356 33 -27 47 -31 118 -35 93 -5 150 8
215 49 l45 29 0 -35 0 -35 160 0 160 0 0 320 0 320 -160 0 -160 0 0 -247 0
-248 -37 -24 c-20 -13 -50 -24 -67 -25 l-31 -1 -3 273 -2 272 -161 0 -160 0 3
-257z"/>
</g>
</svg>
